<?xml version="1.0" encoding="utf-8"?>
<!-- Generator: Adobe Illustrator 25.1.0, SVG Export Plug-In . SVG Version: 6.00 Build 0)  -->
<svg version="1.1" id="Layer_1" xmlns="http://www.w3.org/2000/svg" xmlns:xlink="http://www.w3.org/1999/xlink" x="0px" y="0px"
	 viewBox="0 0 500 500" style="enable-background:new 0 0 500 500;" xml:space="preserve">
<style type="text/css">
	.st0{fill:#4F4F4F;}
</style>
<g>
	<path class="st0" d="M226.49,304.48c0.75,0.04,1.52-0.39,2.27-0.6c21.54-6.19,43.09-12.38,64.63-18.56
		c5.71-1.65,11.34-3.51,16.88-5.66c-28.36,8.46-56.98,15.99-85.63,23.85c11.13-21.32,22.96-42.05,34.48-62.96
		c-12.96,21.38-25.64,42.93-37.99,64.66c-0.24-0.02-0.49-0.04-0.73-0.05c-5.95-22.33-11.89-44.67-17.89-67.17
		c-0.25,1.09,0.13,1.9,0.32,2.74c4.37,19.21,9.26,38.3,14.47,57.3c0.67,2.45,1.07,5.03,2.15,7.29c0.66,1.36,0.49,2.12-0.15,3.23
		c-8.07,14.16-15.71,28.53-22.62,43.3c-2.81,6-5.29,12.29-10.91,16.46c-1.11,0.82-0.54,1.67,0.02,2.5c0.63,0.93,1.34,0.61,2.01,0.1
		c1.89-1.44,3.54-3.12,4.89-5.09c2.64-3.85,4.6-8.08,6.44-12.33c6.69-15.45,14.49-30.34,22.44-45.16
		C222.67,306.28,223.67,304.33,226.49,304.48z"/>
	<path class="st0" d="M376.28,251.8c-6.44,1.49-12.7,0.13-18.97-1.09c-0.67-0.13-1.52-0.36-1.89-0.85
		c-1.89-2.47-4.42-2.28-7.04-1.97c-0.51,0.06-1.06,0.01-1.57-0.09c-2.32-0.48-4.84-0.83-6.08-3.13c-0.82-1.52-1.56-1.47-2.88-0.84
		c-2.93,1.39-5.86,2.8-8.9,3.9c-3.1,1.13-6.24,1.23-8.69-1.58c-1.02-1.17-1.77-0.63-2.62,0.15c-2.7,2.49-5.61,4.77-8.13,7.46
		c-1.58,1.69-3.54,2.59-5.82,2.66c-1.6,0.05-3.24-0.17-4.13-1.76c-0.86-1.54-0.04-2.89,0.81-4.14c0.54-0.79,1.17-1.53,1.84-2.22
		c1.7-1.77,3.46-3.47,5.02-5.37c4.44-5.42,8.71-11,14.41-15.22c1.29-0.96,0.81-1.48-0.1-2.37c-2.72-2.65-3.36-5.66-1.58-8.26
		c2.42-3.53,4.64-7.24,7.85-10.17c0.82-0.75,2.08-1.52,1.7-2.73c-0.33-1.08-1.77-0.88-2.76-1.07c-6.2-1.21-9.12-5.57-8-11.87
		c0.28-1.61,1-2.97,1.86-4.3c0.88-1.35,1.22-2.5-0.81-3.23c-1.43-0.52-2.56-1.63-3.09-3.07c-1.26-3.38-2.25-6.83-1.77-10.51
		c0.09-0.7,0.33-1.42,0.05-2.08c-1.48-3.48-0.72-7.07-0.54-10.63c0.2-3.81,0.47-7.62,0.72-11.44c-0.99-0.04-1.32,0.57-1.63,1.03
		c-3.36,4.99-8.14,8.65-12.16,13.02c-3.09,3.37-6.88,5.71-11.12,7.26c-3.26,1.19-6.27,2.66-8.78,5.1c-1.35,1.3-3.08,1.93-4.84,1.25
		c-2.49-0.96-4.15-0.02-5.8,1.71c-2.09,2.19-4.69,2.99-7.68,2.21c-1.87-0.49-3.17-0.22-4.39,1.66c-3.36,5.24-7.54,6.26-13.14,3.49
		c-1.45-0.72-1.58,0.06-1.85,1.12c-1.17,4.59-2.77,9.04-4.46,13.46c-0.41,1.06-0.62,2.28-1.46,3.06c-2.08,1.93-2.35,4.48-2.34,7
		c0.01,5.52-2.05,10.23-5.26,14.55c-0.99,1.33-1.72,1.24-2.33-0.39c-0.77-2.05-1.64-4.18-1.5-6.36c0.42-6.79-1.06-13.41-1.6-20.1
		c-0.08-0.94-0.19-1.75-1.37-1.85c-1.49-0.14-2.25-1.21-2.91-2.39c-1.56-2.78-2.7-5.69-2.65-8.96c0.02-1.55-0.48-2.56-2.38-2.08
		c-1.56,0.4-2.94-0.25-4.18-1.13c-1.75-1.24-3.14-2.79-3.89-4.84c-0.37-1-0.77-1.95-1.91-2.35c-5.56-1.97-8.33-6.32-9.97-11.66
		c-0.27-0.89-0.33-1.88-1.04-2.8c-0.98,2.59-1.06,5.23-1.51,7.79c-0.64,3.67-2.02,6.88-5.18,9.1c-1.02,0.72-1.75,1.72-2.42,2.75
		c-2.11,3.23-4.13,6.5-5.3,10.23c-0.78,2.49-2.04,4.77-4.67,5.68c-2.07,0.72-2.7,2.05-2.42,4.02c0.64,4.36-3.68,9.68-8.06,10.69
		c-3.92,0.9-3.91,1.02-2.22,4.81c1.57,3.51,1.94,7.07,0.5,10.71c-0.78,1.98-2.14,3.16-4.39,3.06c-4.73-0.2-9.45-0.45-14.03-1.73
		c-1.29-0.36-2.4-0.37-3.5,0.33c-1.78,1.13-3.75,1.38-5.79,1.38c-2.23,0-4.45,0.1-6.99-0.42c0.42,0.64,0.58,0.94,0.8,1.19
		c4.24,4.86,7.56,10.28,9.99,16.25c0.54,1.31,1.33,2.65,0.68,4.01c-0.97,2.05-0.12,2.94,1.64,3.85c4.09,2.12,5.2,6.92,2.47,10.52
		c-0.91,1.21-1.06,1.89,0.27,2.96c5.48,4.41,5.5,4.66,1.68,10.36c-0.79,1.18-0.57,1.68,0.7,2.02c1.86,0.5,3.7,1.06,5.56,1.56
		c3.08,0.85,5.94,2.14,8.31,4.33c1.8,1.67,1.96,2.66,0.92,4.88c-1.1,2.35-1.03,2.56,1.6,2.76c3.58,0.27,7.16,0.56,10.7,1.14
		c1.86,0.31,3.73,0.85,4.66,2.6c1.02,1.9,2.39,1.69,4,1.21c0.8-0.23,1.46-0.9,2.47-0.45c1.88,0.84,3.92,0.84,5.93,0.8
		c1.97-0.04,3.86,0.28,5.57,1.25c2.21,1.25,4.35,2.61,6.56,3.87c3.44,1.96,6.13,4.6,8.01,8.11c0.78,1.46,1.81,2.79,2.74,4.17
		c0.37,0.55,0.74,0.96,1.43,0.25c3.24-3.33,3.09-6.29-0.45-9.41c-1.27-1.12-2.86-1.7-4.28-2.55c2.99,0.1,5.14,1.81,7.22,3.8
		c0.04-0.36,0.11-0.54,0.07-0.69c-0.58-2.11-1.15-4.22-1.76-6.32c-1.22-4.2-1.49-4.32-5.94-4.83c-4.45-0.51-8.91-0.58-13.38-0.53
		c-3.23,0.04-6.46-0.31-9.69,0.21c8.84-1.33,17.7-1.8,26.8-0.43c-0.33-1.32-1.07-2.06-1.72-2.84c-2.36-2.83-4.97-5.42-7.71-7.88
		c-1.15-1.03-2.23-1.42-3.76-1.2c-8.34,1.18-16.52,3.1-24.68,5.12c-0.9,0.22-1.83,0.8-3.39,0.24c9.6-2.91,18.82-5.09,28.61-6.89
		c-4.16-3.86-8.28-6.95-12.31-10.16c-0.76-0.61-1.36-0.44-2.11,0.08c-2.48,1.74-5.33,2.6-8.21,3.39c-7.64,2.1-15.5,2.71-23.34,3.44
		c-1.11,0.1-2.23,0.01-3.35,0.01c5.35-0.77,10.64-1.44,15.9-2.29c5.8-0.94,11.58-2.01,16.86-4.77c2.04-1.07,2.08-1.51,0.26-2.88
		c-3.99-3-8.05-5.91-12.03-8.93c-1.21-0.91-2.16-1-3.52-0.15c-4.92,3.08-10.49,4.31-16.11,5.32c-0.48,0.09-1.13,0.36-1.48-0.45
		c3.97-0.77,7.86-1.78,11.63-3.21c1.81-0.69,3.53-1.53,5.14-2.61c0.98-0.66,1.09-1.29,0.08-2.02c-1.35-0.97-2.77-1.87-4.02-2.96
		c-1.35-1.17-2.38-1.31-3.81,0c-1.67,1.52-3.77,2.37-6.04,2.65c1.67-1.18,3.58-1.86,5.17-3.12c1.71-1.35,1.72-1.58,0.05-2.86
		c-1.32-1.01-2.74-1.91-4.02-2.96c-1.24-1.02-2.29-1.18-3.73-0.24c-1.78,1.16-3.75,2.06-5.95,2.25c1.25-0.82,2.6-1.41,3.89-2.11
		c1.21-0.66,2.83-1.11,2.1-3.52c2.43,1.72,4.55,3.24,6.69,4.72c1.67,1.15,2.06,1.09,2.35-0.93c0.49-3.35,1.32-6.7,0.65-10.15
		c-0.26-1.33-0.23-2.69,0.09-4.02c1.06,5.2,1.34,10.4,0.11,15.59c-0.26,1.09,0.03,1.85,0.93,2.49c2.37,1.66,4.74,3.32,7.06,5.04
		c1.22,0.91,1.75,0.4,1.92-0.82c0.24-1.73,0.57-3.45,0.67-5.21c0.18-3.5-0.39-6.93-0.92-10.44c0.28,0.08,0.39,0.08,0.41,0.12
		c0.13,0.32,0.26,0.64,0.36,0.97c1.38,4.97,1.54,10.02,0.63,15.07c-0.29,1.62,0.08,2.64,1.44,3.54c2.19,1.45,4.32,2.99,6.41,4.58
		c1.32,1,1.84,0.5,2.08-0.87c0.33-1.81,0.58-3.62,0.73-5.46c0.22-2.76,0.47-5.52,0.24-8.3c0.68,1.69,0.88,3.41,0.91,5.17
		c0.05,3.17-0.28,6.29-0.8,9.41c-0.18,1.08-0.3,2.1,0.71,2.86c2.98,2.26,5.95,4.52,9.1,6.91c1.32-3.67,1.16-7.23,1.82-10.69
		c0.25,2.1,0.73,4.33,0.16,6.24c-1.5,4.98,1.17,7.63,4.77,10.04c1.84,1.23,3.2,3.13,5.36,4.32c0.57-2.15,0.19-4.11,0.6-5.97
		c0.98,1.84,0.96,3.76,0.8,5.68c-0.07,0.88-0.28,1.77,0.52,2.44c1.78,1.49,3.56,2.98,4.95,4.13c-1.43-5.41-3.04-11.48-4.63-17.56
		c-0.26-0.99-1.06-1.31-1.87-1.67c-1.46-0.64-2.93-1.27-4.08-2.45c1.75,0.15,3.16,1.42,5.15,1.29c-0.44-3.22-1.45-6.19-2.06-9.26
		c-0.33-1.65-1.17-2.54-2.74-3.13c-2.04-0.77-4.16-1.51-5.66-3.31c1.52,0.39,2.92,1.04,4.36,1.57c0.77,0.28,1.65,1.03,2.44,0.3
		c0.67-0.62,0.13-1.49-0.04-2.23c-0.53-2.3-1.21-4.58-1.6-6.91c-0.3-1.75-1.17-2.76-2.75-3.5c-4.69-2.2-9.08-4.93-13.34-7.87
		c-0.67-0.46-1.55-0.75-1.89-1.89c1.16,0.18,1.85,0.89,2.6,1.4c3.84,2.63,7.88,4.91,12.02,7.02c0.57,0.29,1.27,0.88,1.92,0.23
		c0.48-0.49,0.17-1.16,0.05-1.76c-1.48-7.48-2.47-15.03-3.31-22.6c-0.18-1.62-0.9-2.24-2.3-2.68c-3.54-1.12-6.73-2.95-9.68-5.19
		c-0.5-0.38-1.21-0.66-1.2-1.52c0.88-0.03,1.29,0.62,1.84,1c2.52,1.76,5.15,3.33,8.08,4.33c2.28,0.77,2.75,0.52,2.61-1.81
		c-0.28-4.89-0.7-9.78-1.03-14.67c-0.07-1.03-0.48-1.57-1.55-1.73c-1.23-0.19-2.54-0.3-3.62-1.33c0.9-0.39,1.53,0.06,2.18,0.18
		c2.76,0.54,2.84,0.43,2.68-2.31c-0.29-4.78-0.29-9.56-0.13-14.47c0.72,0.47,0.51,1.06,0.55,1.54c0.61,8.12,1.06,16.24,2.11,24.32
		c0.34,2.6,0.28,2.61,2.86,2.35c-0.92,1.07-2.55,1.43-2.3,3.28c0.38,2.93,0.62,5.87,1.33,8.93c4.21-1.84,7.56-4.77,11.52-7.42
		c-0.42,1.5-1.32,1.93-2.04,2.51c-2.32,1.87-4.75,3.62-7.36,5.05c-1.58,0.87-2.06,1.96-1.76,3.64c0.9,4.91,1.78,9.82,2.61,14.74
		c0.3,1.78,1.08,1.71,2.3,0.84c3.01-2.16,5.54-4.82,7.91-7.65c0.4-0.48,0.67-1.15,1.69-1.34c-0.46,1.3-1.17,2.07-1.8,2.88
		c-2.17,2.78-4.68,5.21-7.58,7.23c-1.12,0.78-1.75,1.7-1.39,3.1c0.84,3.22,1.7,6.43,2.52,9.66c0.31,1.19,0.92,1.35,1.91,0.73
		c1.71-1.07,3.3-2.3,4.77-3.69c2.07-1.96,3.93-4.13,5.92-6.5c0.32,1.18-0.3,1.66-0.68,2.16c-2.66,3.51-5.63,6.72-9.36,9.13
		c-1.18,0.76-1.69,1.6-1.27,3.05c0.9,3.11,1.71,6.25,2.5,9.39c0.36,1.42,0.94,1.65,2.19,0.83c3.08-2,5.44-4.65,7.41-7.7
		c0.39-0.6,0.57-1.4,1.83-1.94c-1.66,3.77-3.47,7.1-6.51,8.89c-4.23,2.48-3.81,5.45-2.44,9.15c1.02,2.75,1.15,2.87,3.69,1.14
		c1.57-1.07,2.65-2.68,4.29-3.67c-1.16,2.49-2.99,4.37-5.34,5.74c-0.9,0.53-1.53,0.98-1.15,2.25c0.9,3.02,1.62,6.09,2.49,9.12
		c0.5,1.74,0.91,1.76,2.21,0.41c1.13-1.16,1.51-2.77,2.44-4.06c-0.12,2.19-0.81,4.17-2.38,5.63c-1.14,1.06-1.36,2.13-0.88,3.51
		c0.26,0.74,0.39,1.53,0.67,2.27c0.24,0.63,0.06,1.53,0.83,1.83c0.7,0.28,0.82-1.06,1.91-0.76c-1.37,2.16-2.01,4.32-0.24,6.84
		c1.16-2.03,2.11-3.9,3.26-5.63c1.03-1.56,1.56-2.96,0.47-4.78c-0.62-1.03-0.7-2.37-0.49-3.65c0.5,0.85,0.81,1.75,1.17,2.63
		c0.19,0.47,0.28,1.12,0.88,1.21c0.61,0.09,0.87-0.49,1.13-0.94c0.49-0.83,0.85-1.75,1.44-2.5c1.1-1.42,0.93-2.44-0.25-3.86
		c-1.88-2.28-2.95-5.04-3.36-7.99c1.05,2.03,1.93,4.13,3.24,6c2.28,3.22,2.76,2.32,3.78-0.05c0.27-0.64,0.68-1.23,1.08-1.8
		c0.83-1.2,0.84-2.09-0.52-3.05c-1.91-1.35-2.92-3.36-3.41-5.62c1.29,1.35,2.11,3.03,3.52,4.23c1.66,1.42,2.07,1.38,3.19-0.42
		c0.75-1.19,1.39-2.44,2.18-3.6c0.79-1.15,0.6-2.07-0.3-3.04c-1.56-1.67-2.95-3.47-4.15-5.42c-3.34-5.43-4.92-11.3-4.44-17.69
		c0.29,2.03,0.53,4.07,0.91,6.1c1.14,6.03,3.94,11.18,8.15,15.6c0.99,1.04,1.69,1.35,2.54-0.2c1.47-2.69,3.06-5.31,4.66-7.93
		c0.63-1.03,0.7-1.84-0.16-2.82c-5.93-6.77-8.56-14.98-9.93-23.65c-0.37-2.32-1.11-4.69-0.32-7.1c0.47,4.44,1.31,8.81,2.52,13.1
		c1.63,5.78,3.83,11.29,7.96,15.81c1.5,1.65,1.69,1.62,2.83-0.26c2.05-3.37,4-6.8,6.04-10.16c0.76-1.26,0.75-2.37,0.1-3.69
		c-2.14-4.43-3.68-9.07-4.89-13.85c-2.3-9.02-3.5-18.22-4.26-27.46c-0.26-3.19-1.08-6.42-0.29-10.29c0.71,7.75,1.3,14.89,2.45,21.96
		c1.53,9.35,3.39,18.61,7.34,27.32c0.37,0.82,0.54,1.83,1.67,2.37c3.83-6.31,7.59-12.51,11.37-18.71c0.65-1.07,0.32-1.98-0.28-2.93
		c-6.35-10.09-7.87-21.37-8.11-32.97c-0.03-1.33,0.31-2.58,0.9-3.79c-0.53,2.81,0.11,5.58,0.14,8.35c0.06,5.66,1.19,11.13,2.87,16.5
		c1.15,3.69,2.77,7.19,4.81,10.48c0.89,1.43,1.57,1.34,2.43-0.06c2.89-4.7,5.83-9.37,8.78-14.03c0.61-0.97,0.89-1.8,0.11-2.86
		c-2.56-3.46-3.72-7.5-4.58-11.64c-0.36-1.76-0.99-3.51-0.54-5.37c0.44,1.13,0.69,2.3,0.95,3.46c0.9,4.03,1.93,8.01,4.12,11.57
		c1.32,2.15,1.66,2.15,3,0.08c2.15-3.31,4.19-6.68,6.41-9.94c0.95-1.4,1.15-2.41,0.09-3.94c-1.64-2.36-2.58-5.07-2.55-8.03
		c1.16,3.02,1.89,6.24,4.61,8.66c1.54-2.39,2.92-4.62,4.39-6.79c0.63-0.93,0.6-1.74,0.06-2.67c-1.09-1.88-0.97-3.89-0.49-5.92
		c0.19,0.85,0.22,1.71,0.28,2.57c0.09,1.24,0.21,2.8,1.44,3.11c1.06,0.27,1.4-1.33,1.98-2.14c1.31-1.84,2.52-3.75,3.77-5.62
		c0.16,0.11,0.32,0.22,0.48,0.33c-1.83,3.08-3.72,6.12-5.48,9.24c-0.7,1.24-2.55,2.51-1.65,3.81c0.97,1.41,3.08,0.6,4.7,0.55
		c0.95-0.03,1.9-0.28,2.85-0.44c0.35-0.06,0.68-0.17,1.03-0.22c0.35-0.05,0.79-0.36,1.05,0.32c-2.96,1.1-5.99,1.3-9.06,1.23
		c-0.96-0.02-1.99-0.17-2.61,0.82c-2.52,4.06-5.03,8.13-7.7,12.45c8.7,1.07,16.38-0.73,23.73-4.41c-0.11,0.13-0.2,0.29-0.33,0.38
		c-0.29,0.19-0.6,0.36-0.91,0.52c-6.45,3.49-13.3,5.36-20.68,4.94c-1.45-0.08-2.73-0.03-3.61,1.48
		c-3.72,6.35-7.52,12.65-11.28,18.97c-0.26,0.44-0.71,0.89-0.43,1.43c0.3,0.57,0.91,0.37,1.42,0.32
		c11.02-0.96,21.87-2.81,32.39-6.38c0.75-0.25,1.49-0.75,2.48-0.45c-0.73,0.88-1.66,0.95-2.46,1.24
		c-10.7,3.83-21.78,5.91-33.07,6.97c-0.95,0.09-2.02-0.09-2.61,0.89c-1.78,2.96-3.68,5.86-5.27,9.36
		c6.86,0.36,13.33,0.37,19.78,0.01c6.39-0.36,12.7-1.46,19.06-2.17c-5.66,1.59-11.44,2.39-17.25,3.04
		c-6.72,0.75-13.47,0.59-20.21,0.52c-1.27-0.01-2.41-0.03-3.15,1.3c-2.86,5.12-5.76,10.22-8.67,15.32
		c-0.67,1.18-0.19,1.59,0.98,1.62c0.61,0.02,1.23,0.03,1.84,0.04c8.24,0.19,16.18-1.51,24.04-3.76c1.73-0.5,3.46-0.97,5.2-1.46
		c-2.26,1.65-4.89,2.25-7.44,2.99c-8.1,2.35-16.32,4.03-24.83,3.55c-1.22-0.07-1.74,0.52-2.23,1.41c-1.53,2.75-3.08,5.5-4.64,8.24
		c-2.69,4.74-2.55,4.94,3.07,5.26c7.68,0.43,15.2-0.58,22.63-2.46c0.91-0.23,1.85-0.78,3.4-0.3c-9.08,2.82-17.87,5.11-26.79,3.76
		c-5.25-0.8-7.24,1.22-8.82,5.26c-0.06,0.16-0.15,0.32-0.25,0.46c-1,1.4-0.44,1.85,1.07,2.23c2.25,0.56,4.6,0.13,6.82,0.86
		c-1.8,0.41-3.68,0.83-5.41,0.35c-3.39-0.95-5.24,0.44-6.33,3.46c-0.06,0.16-0.18,0.3-0.27,0.45c-1.18,2.17-1,2.43,1.47,2.63
		c2.52,0.2,4.94-0.55,7.43-0.59c-2.91,1.37-5.99,1.87-9.15,1.64c-1.26-0.09-1.98,0.27-2.54,1.32c-0.9,1.7-1.87,3.37-2.78,5.07
		c-0.28,0.52-0.82,1.1-0.44,1.69c0.46,0.71,1.27,0.31,1.94,0.31c0.51,0,1.06-0.46,1.63,0c-0.56,0.73-1.27,0.95-1.94,1
		c-3.27,0.25-4.5,2.65-5.61,5.19c-0.2,0.46-0.65,0.95-0.21,1.43c0.42,0.46,0.98,0.15,1.48,0.01c4.3-1.2,8.6-2.42,12.91-3.58
		c1.15-0.31,1.75-0.89,1.97-2.11c0.24-1.37,0.57-2.78,1.79-3.72c-0.04,1.08-0.28,2.08-0.51,3.08c-0.33,1.39,0.24,1.76,1.54,1.39
		c1.51-0.44,3.02-0.95,4.56-1.22c2.15-0.38,3.1-1.34,3.03-3.7c-0.08-2.64,0.86-5.13,2.38-7.35c-0.46,2.58-1.31,5.06-1.23,7.72
		c0.05,1.54,0.6,2.05,2.13,1.55c1.75-0.57,3.55-0.97,5.31-1.48c2.82-0.81,2.84-0.82,2.83-3.74c-0.01-2.78,0.54-5.4,2-7.8
		c-0.16,2.26-0.81,4.43-0.78,6.71c0.04,3.6,0.09,3.68,3.44,2.74c0.67-0.19,1.34-0.41,2.03-0.55c1.61-0.32,2.35-1.15,2.31-2.9
		c-0.06-3.25,1.17-6.17,2.81-8.91c2.49-4.19,5.91-7.58,9.53-10.79c0.24-0.21,0.52-0.48,0.95-0.21c-0.23,1.01-1.15,1.46-1.8,2.1
		c-2.96,2.88-5.77,5.89-7.81,9.52c-1.39,2.47-2.3,5.1-2.4,7.97c-0.05,1.55,0.53,2.06,2.07,1.6c2.35-0.71,4.71-1.36,7.1-1.92
		c1.85-0.44,2.77-1.28,2.86-3.37c0.13-2.81,0.88-5.54,2.71-7.84c-0.77,2.6-1.51,5.17-1.55,7.9c-0.02,1.57,0.59,2.05,2.09,1.6
		c2.51-0.76,5.03-1.52,7.58-2.14c1.62-0.4,2.29-1.39,2.52-2.93c0.73-5.01,2.76-9.57,4.99-14.05c0.28-0.56,0.38-1.36,1.27-1.47
		c0.21,0.8-0.33,1.34-0.61,1.94c-1.95,4.22-3.75,8.5-4.52,13.12c-0.33,1.97-0.04,2.25,1.87,1.66c2.59-0.8,5.14-1.75,7.74-2.52
		c1.49-0.45,2.13-1.26,2.08-2.84c-0.06-2.08,0.23-4.12,1.42-5.97c-0.15,1.99-0.39,3.95-0.28,5.93c0.06,1.14,0.47,1.6,1.66,1.14
		c1.47-0.57,2.94-1.16,4.47-1.55c1.9-0.48,2.61-1.46,2.67-3.5c0.16-5.07,2.14-9.58,4.94-13.75c0.16,1.02-0.45,1.78-0.82,2.62
		c-1.53,3.46-2.97,6.94-2.96,10.81c0.01,1.99,0.27,2.21,2.12,1.62c1.83-0.59,3.6-1.38,5.45-1.93c1.55-0.46,2.31-1.2,2.3-2.95
		c-0.01-2.07,0.71-4.02,1.92-5.75c-0.15,1.91-0.96,3.67-1.1,5.58c-0.09,1.29,0.29,1.86,1.63,1.33c1.96-0.77,3.89-1.62,5.89-2.25
		c1.6-0.51,2.27-1.43,2.18-3.07c-0.06-1.28-0.04-2.59,1.18-4.14c-0.19,1.54-0.38,2.48-0.42,3.42c-0.09,2.3,0.22,2.54,2.33,1.75
		c2.54-0.95,5.06-1.98,7.6-2.94c4.06-1.55,8.12-3.08,12.3-4.65c-0.01,0.72-0.36,0.85-0.64,0.97c-5.68,2.5-11.41,4.88-17.15,7.22
		c-6.4,2.61-12.74,5.38-19.21,7.81c-1.7,0.64-1.44,1.38-0.34,2.39c0.53,0.49,1.34,0.83,1.41,1.77c-0.98,0.15-1.5-0.58-1.94-1.13
		c-1.43-1.77-3-1.64-4.9-0.85c-3.88,1.62-7.83,3.06-11.74,4.6c-2.06,0.81-2.1,1.03-0.36,2.5c4.49,3.82,9.36,7.08,14.68,9.64
		c2.89,1.4,5.83,2.7,8.85,4.09c-0.3,0.12-0.47,0.25-0.6,0.22c-0.43-0.09-0.85-0.22-1.26-0.37c-8.07-3.11-15.65-7.1-22.21-12.77
		c-1.86-1.61-3.43-1.87-5.66-0.98c-5.86,2.35-11.94,4.04-18.01,5.73c-2.06,0.57-4.09,1.26-6.55,2.02
		c6.56,4.47,12.99,8.17,19.63,11.51c6.62,3.33,13.45,6.18,20.71,8.77c-0.54,0.21-0.71,0.35-0.84,0.31c-0.68-0.18-1.34-0.4-2.01-0.62
		c-13.18-4.46-25.54-10.61-37.18-18.22c-1.56-1.02-2.87-1.2-4.62-0.62c-3.4,1.13-6.89,2.01-10.33,3.05c-0.67,0.2-1.6,0.11-1.94,1.18
		c3.35,2.57,7.08,4.59,10.94,7.15c-1.49,0.21-2.18-0.41-2.9-0.82c-2.96-1.7-5.91-3.42-8.81-5.23c-1.14-0.71-2.16-0.88-3.46-0.49
		c-5.53,1.67-11.09,3.26-16.64,4.87c-0.53,0.15-1.12,0.21-1.58,0.84c1.1,0.37,2.06,0.57,2.9,1.02c2.19,1.16,4.26,1.09,6.49,0
		c1.49-0.73,3.12-1.32,4.88-1.17c-1.93,1.14-4.15,1.68-6.21,3.27c4.52,1.85,8.47,4.08,12.45,6.27c1.58,0.87,2.79,0.93,4.24-0.29
		c1.6-1.34,3.52-2.17,5.63-2.42c-1.73,1.08-3.49,2.04-5.07,3.31c-1.14,0.91-0.93,1.49,0.23,2.09c3.03,1.58,6.06,3.16,9.06,4.79
		c0.99,0.54,1.79,0.34,2.69-0.21c2.32-1.42,4.79-2.55,7.34-3.51c4.07-1.53,7-1.84,10.33-1.01c-6.53-0.26-11.98,2.47-17.48,5.93
		c6.07,3.18,11.86,6.09,17.51,9.24c1.82,1.01,3.02,1.02,4.64-0.32c3.67-3.03,7.99-4.5,12.78-4.54c-0.94,0.38-1.92,0.64-2.92,0.83
		c-3.44,0.64-6.46,2.16-9.15,4.35c-1.68,1.37-1.7,1.48,0.07,2.51c2.57,1.5,5.19,2.92,7.79,4.36c0.85,0.47,1.71,0.9,2.74,0.52
		c0.28-0.1,1.11-0.42,0.68,0.4c-0.71,1.37,0.6,1.19,1.08,1.57c0.72,0.58,1.77,0.76,2.15,1.77c-2.16-0.85-4.16-1.92-6.14-3.03
		c-1.19-0.66-1.81-0.31-1.95,1c-0.21,1.9-0.12,3.79,0.14,5.69c-1.27-1.94-1.38-4.07-0.98-6.2c0.26-1.37-0.15-2.1-1.34-2.7
		c-2.65-1.35-5.25-2.81-7.89-4.18c-1.65-0.86-2.04-0.7-2.38,1.26c-0.52,2.97-0.37,5.93,0.59,8.82c0.11,0.33,0.24,0.66,0.3,1
		c0.06,0.33,0.47,0.76-0.24,1.06c-1.88-3.77-2.32-7.73-1.54-11.75c0.33-1.69-0.26-2.36-1.6-3.02c-5.98-2.93-11.92-5.93-17.89-8.88
		c-0.49-0.24-0.99-0.82-1.75-0.17c1.49,9.52,5.06,18.38,9.39,26.99c-0.8-0.17-0.96-0.69-1.21-1.14c-4.43-8.03-7.76-16.47-9.54-25.49
		c-0.21-1.06-0.39-2-1.51-2.56c-2.5-1.26-4.93-2.66-7.43-3.93c-1.79-0.9-2.19-0.71-2.46,1.14c-0.26,1.73-0.48,3.48-0.49,5.22
		c-0.04,5.98,0.84,11.86,2.25,17.67c0.25,1.03,0.77,2.06,0.53,3.35c-0.26-0.31-0.43-0.42-0.47-0.56c-2.54-8.71-4.43-17.5-3.01-26.64
		c0.24-1.52-0.19-2.25-1.49-2.86c-3.17-1.49-6.28-3.1-9.44-4.61c-1.35-0.65-2.77-1.16-4.62-1.93c3.76,8.47,7.61,16.23,8,25.05
		c-1.49-8.74-5.2-16.65-9.3-24.41c-0.39-0.73-0.96-1.23-1.75-1.5c-2.9-0.98-5.57-0.47-8.21,1.01c4.92,6.36,7.61,11.86,7.47,15.48
		c-0.46-1.21-0.81-2.19-1.2-3.15c-1.47-3.69-3.33-7.13-6.03-10.09c-1.3-1.42-2.64-2.11-4.63-1.28c-1.69,0.7-3.51,1.06-5.28,1.57
		c-0.94,0.27-2.11,0.54-1.98,1.71c0.11,1,1.3,0.56,2.01,0.74c2.54,0.66,4.74,1.77,6.08,4.12c-0.69-0.2-1.2-0.65-1.72-1.08
		c-1.95-1.57-4.23-2.12-6.66-1.82c-2.17,0.27-2.25,2.46-3.12,3.88c-0.53,0.86-1.67,1.94-1.14,2.75c0.73,1.1,2.28,0.48,3.41,0.3
		c3.2-0.51,6.32-0.42,9.27,0.95c7.71,3.59,14.6,8.52,20.35,14.65c5.62,5.99,11.38,11.91,16.41,18.44c0.73,0.95,1.35,1.16,2.38,0.43
		c1.52-1.09,3.22-1.06,5.03-0.72c5.6,1.06,10.75,3.05,15.23,6.68c1.97,1.59,2.11,1.45,2.52-0.87c0.62-3.5,4.63-6.47,8.15-5.93
		c1.04,0.16,1.89,0.04,2.7-0.6c1.93-1.52,3.93-1.34,5.84-0.04c2.03,1.38,3.92,2.26,5.88-0.12c0.34-0.41,1.08-0.55,1.67-0.7
		c2.9-0.75,5.81-1.21,8.82-0.55c3.42,0.75,6.87,1.37,10.31,2.01c0.89,0.16,1.82,0.5,2.71-0.01c-0.08-0.32-0.07-0.51-0.16-0.64
		c-0.34-0.51-0.67-1.04-1.08-1.48c-4.76-5.14-8.19-11.1-10.9-17.53c-1.04-2.46-1.71-4.96-1.58-7.64c0.04-0.9,0.12-1.89,0.92-2.36
		c2.69-1.57,5.01-3.87,8.33-4.22c1.04-0.11,2.06-0.41,3.08-0.68c1.45-0.38,1.85-0.86,0.68-2.28c-3.63-4.39-3.02-7.3,1.93-10.17
		c1.38-0.8,2.87-1.3,4.4-1.68c1.02-0.26,2.05-0.49,3.04-0.83c2.47-0.86,2.47-0.9,1.32-3.25c-1.61-3.27-1.36-4.48,1.45-6.81
		c0.47-0.39,0.95-0.78,1.45-1.13c1.35-0.95,2.35-1.95,1.91-3.89c-0.34-1.51,0.48-2.89,1.34-4.14c2.37-3.46,4.77-6.87,7.5-10.09
		c5.7-6.74,10.75-14.05,17.77-19.59c0.2-0.16,0.32-0.41,0.09-0.86C379.7,251.3,377.96,251.41,376.28,251.8z"/>
	<path class="st0" d="M352.13,106.51H147.87c-62.67,0-113.48,50.81-113.48,113.48v75.91c0,62.67,50.81,113.48,113.48,113.48h204.26
		c62.67,0,113.48-50.81,113.48-113.48v-75.91C465.61,157.31,414.8,106.51,352.13,106.51z M383.78,250.94
		c-0.5,0.71-0.93,1.55-1.61,2.05c-4.05,3.01-7.3,6.77-10.47,10.65c-4.64,5.68-9.58,11.12-13.65,17.25c-1.33,1.99-2.7,3.92-1.81,6.54
		c0.31,0.91-0.39,1.46-1,1.97c-1.01,0.84-2.05,1.64-3.07,2.47c-2.29,1.86-2.44,2.6-1.14,5.13c1.95,3.78,1.94,3.76-2.17,5.19
		c-2.55,0.88-5.3,1.21-7.64,2.73c-3.39,2.2-3.71,5.37-0.73,8.17c2.19,2.06,2.14,2.49-0.64,3.64c-0.97,0.4-1.98,0.82-3.01,0.91
		c-3.32,0.27-5.86,2.09-8.46,3.87c-0.88,0.6-0.89,1.43-0.91,2.31c-0.06,2.52,0.88,4.78,1.82,7.06c2.61,6.29,6.19,11.95,10.73,17.02
		c0.82,0.92,2.25,1.98,1.57,3.34c-0.78,1.56-2.49,0.89-3.82,0.66c-4.14-0.72-8.24-1.77-12.4-2.23c-3.72-0.41-7.6-0.47-10.24,3.08
		c-0.59,0.8-1.22,0.49-1.84,0.15c-1.08-0.58-2.13-1.22-3.19-1.82c-1.74-0.99-3.45-1.22-5.12,0.18c-0.71,0.59-1.56,0.72-2.47,0.65
		c-4.34-0.37-6.87,1.65-7.43,5.88c-0.45,3.47-0.49,3.53-3.33,1.39c-4.38-3.31-9.02-6.04-14.53-7c-2.37-0.41-4.69-0.87-6.66,1.1
		c-1.02,1.01-1.57-0.06-2.09-0.65c-2.66-3.02-5.26-6.1-7.93-9.11c-3.19-3.6-6.28-7.35-9.7-10.69c-5.63-5.51-11.94-10.29-19.13-13.71
		c-2.57-1.22-5.39-0.95-8.19-1.11c-4.78-0.28-6.75,2.07-8.73,5.94c-5.67,11.08-10.84,22.39-16.01,33.69
		c-1.21,2.63-2.53,5.2-4.04,7.66c-1.43,2.34-3.24,4.35-5.35,6.09c-3.19,2.64-4.93,1.99-5.78-2.11c-0.15-0.71,0.01-1.23,0.59-1.58
		c5-3.07,7.31-8.16,9.68-13.13c5.84-12.26,11.72-24.49,18.5-36.27c1.18-2.04,1.65-3.8-0.28-5.58c-0.31-0.29-0.55-0.69-0.73-1.08
		c-3.09-6.71-8.88-10.4-15.14-13.58c-1.76-0.89-3.57-1.4-5.55-1.38c-3.65,0.03-7.31-0.71-10.96,0.13c-0.89,0.21-1.54,0.02-1.77-0.99
		c-0.52-2.29-2.34-2.96-4.31-3.21c-3.64-0.46-7.31-0.8-10.96-1.18c-0.87-0.09-1.74-0.15-2.61-0.23c-1.54-0.15-2.09-0.79-1.04-2.18
		c0.05-0.07,0.1-0.15,0.14-0.22c2.35-4.07,2.16-4.79-1.84-7.18c-1.75-1.04-3.66-1.67-5.6-2.21c-1.43-0.4-2.88-0.77-4.31-1.18
		c-4.67-1.34-4.73-1.55-1.69-5.34c2.36-2.94,2.23-4.12-0.7-6.54c-0.14-0.11-0.29-0.21-0.4-0.33c-1-1.08-2.95-1.46-3.15-2.96
		c-0.19-1.39,1.45-2.27,2.23-3.41c1.33-1.94,0.28-5.83-2.01-7.42c-0.43-0.3-0.92-0.51-1.38-0.77c-2.55-1.45-2.55-1.45-1.83-4.3
		c0.36-1.43-0.03-2.71-0.55-4.07c-2.44-6.4-6.38-11.83-10.74-17.01c-0.52-0.62-1.65-1.27-1.02-2.16c0.55-0.79,1.66-0.24,2.47-0.01
		c2.93,0.84,5.9,0.62,8.88,0.47c0.52-0.03,1.11-0.08,1.52-0.34c2.62-1.7,5.21-1.59,8.23-0.82c3.52,0.9,7.27,1.01,10.93,1.27
		c2.5,0.18,3.23-0.45,4.05-2.83c1.06-3.07,0.56-6.04-0.68-8.95c-0.74-1.76-2.47-3.63-1.84-5.29c0.66-1.71,3.25-1.03,4.97-1.49
		c4-1.07,7.06-4.93,6.97-9.1c-0.04-1.69,0.15-3.32,0.61-4.93c0.22-0.77,0.57-1.7,1.61-1.12c1.65,0.91,2.45-0.31,3.31-1.21
		c0.85-0.89,1.26-2.09,1.68-3.24c2.04-5.57,4.68-10.72,9.36-14.63c2.19-1.83,3.02-4.46,3.37-7.22c0.36-2.78,0.8-5.55,1.5-8.26
		c0.3-1.16,0.6-2.33,1.71-3.38c1.01,1.69,1.21,3.44,1.59,5.1c0.8,3.5,2.24,6.58,4.79,9.19c1.26,1.29,2.49,2.45,4.31,2.8
		c1.45,0.27,2.23,1.27,2.8,2.52c0.62,1.35,1.21,2.72,2.24,3.84c1.33,1.43,2.87,2.17,4.89,2.05c3.11-0.19,3.66,0.3,3.75,3.46
		c0.08,2.88,0.97,5.49,2.28,8.01c0.65,1.24,1.42,2.21,3,2.1c1.31-0.09,1.58,0.74,1.63,1.84c0.26,6.9,2.21,13.65,1.64,20.63
		c-0.17,2.03,0.46,4.11,1.5,6.33c2.16-2.48,3.37-5.09,4.21-7.96c0.88-2.99,0.42-6.1,1.15-9.1c0.36-1.46,0.55-2.91,1.97-3.83
		c0.6-0.39,0.8-1.14,1.03-1.8c1.91-5.27,3.99-10.48,5.14-15.99c0.47-2.26,0.91-2.51,2.69-1.04c4.62,3.83,9.15,2.05,12.57-2.95
		c1.54-2.24,2.12-2.68,4.78-1.92c3.05,0.87,5.55,0.17,7.61-2.12c1.73-1.93,3.56-2.95,6.22-1.75c1.46,0.66,2.97,0.18,4.11-0.97
		c2.61-2.61,5.83-4.09,9.25-5.31c4.27-1.53,7.86-4.09,11.05-7.35c4.53-4.62,9.02-9.28,13.24-14.18c0.53-0.62,1.17-1.75,2.04-1.36
		c1.13,0.5,0.33,1.7,0.28,2.59c-0.35,5.94-0.75,11.88-1.1,17.82c-0.07,1.21-0.18,2.47,0.75,3.49c0.63,0.69,0.32,1.49,0.24,2.25
		c-0.31,2.99-0.09,5.92,0.75,8.84c0.7,2.44,1.83,4.35,4.43,5.05c1.43,0.39,1.79,1.24,1.1,2.55c-0.45,0.85-0.84,1.74-1.35,2.55
		c-1.72,2.73-1.72,5.65-0.86,8.6c0.74,2.55,2.42,4.22,5.13,4.69c1.21,0.21,2.42,0.41,3.61,0.7c2.25,0.55,2.56,1.29,1.42,3.35
		c-0.33,0.61-0.73,1.22-1.25,1.67c-3.15,2.74-5.34,6.25-7.69,9.63c-2.15,3.1-1.49,6.42,1.74,8.29c1.49,0.86,1.85,1.35,0.32,2.5
		c-6,4.52-10.79,10.22-15.45,16.05c-1.15,1.43-2.48,2.72-3.74,4.05c-0.72,0.77-1.56,1.44-2.19,2.27c-0.92,1.21-2.5,2.55-1.39,4.12
		c1.08,1.53,3.03,1,4.64,0.59c1.21-0.31,2.11-1.17,3.02-2.02c2.94-2.75,5.96-5.42,8.9-8.17c1.17-1.09,2.15-1.44,3.17,0.14
		c1.73,2.68,4.29,2.81,6.98,2.04c3.21-0.92,6.14-2.54,9.19-3.87c0.96-0.42,1.94-0.81,2.92-1.17c0.81-0.3,1.45-0.03,1.56,0.84
		c0.36,2.78,2.53,3.32,4.7,3.83c2.09,0.49,4.16,0,6.25-0.1c2.2-0.1,2.93,2.82,5.16,3.19c5.93,0.97,11.8,2.56,17.91,1.13
		c2.38-0.56,4.84-0.73,7.27-1.07c0.49-0.07,1.08-0.33,1.38,0.3C384.37,250.2,384.02,250.6,383.78,250.94z"/>
</g>
</svg>
