<?xml version="1.0" encoding="utf-8"?>
<!-- Generator: Adobe Illustrator 24.2.3, SVG Export Plug-In . SVG Version: 6.00 Build 0)  -->
<svg version="1.1" id="Layer_1" xmlns="http://www.w3.org/2000/svg" xmlns:xlink="http://www.w3.org/1999/xlink" x="0px" y="0px"
	 viewBox="0 0 1296 1728" style="enable-background:new 0 0 1296 1728;" xml:space="preserve">
<style type="text/css">
	.st0{fill:#4F4F4F;}
</style>
<g>
	<path class="st0" d="M360.15,363.03c4.83,8.05,5.8,16.44,7.61,24.35c3.83,16.7,10.68,31.45,22.86,43.88
		c6.02,6.15,11.88,11.72,20.58,13.36c6.92,1.3,10.63,6.08,13.36,12.06c2.94,6.46,5.76,13,10.71,18.33
		c6.34,6.83,13.73,10.37,23.36,9.78c14.86-0.91,17.48,1.41,17.92,16.54c0.4,13.78,4.61,26.22,10.87,38.24
		c3.09,5.93,6.76,10.55,14.33,10.01c6.27-0.45,7.57,3.53,7.77,8.78c1.23,32.94,10.57,65.19,7.82,98.56
		c-0.8,9.71,2.2,19.65,7.17,30.26c10.32-11.85,16.09-24.31,20.1-38.02c4.18-14.26,2.03-29.16,5.5-43.45
		c1.7-6.99,2.62-13.91,9.4-18.31c2.85-1.85,3.8-5.43,4.94-8.58c9.11-25.16,19.05-50.04,24.54-76.38c2.25-10.79,4.36-12,12.84-4.97
		c22.06,18.31,43.7,9.78,60.03-14.07c7.34-10.72,10.11-12.81,22.82-9.18c14.57,4.17,26.51,0.82,36.34-10.14
		c8.28-9.23,17.02-14.09,29.73-8.36c6.99,3.15,14.18,0.85,19.65-4.62c12.48-12.47,27.86-19.54,44.19-25.38
		c20.41-7.3,37.53-19.55,52.78-35.13c21.63-22.09,43.08-44.31,63.26-67.75c2.55-2.96,5.6-8.34,9.73-6.52
		c5.42,2.38,1.59,8.12,1.34,12.36c-1.67,28.38-3.57,56.75-5.24,85.13c-0.34,5.8-0.86,11.82,3.59,16.68
		c3.02,3.3,1.55,7.11,1.17,10.77c-1.47,14.3-0.42,28.29,3.56,42.23c3.32,11.64,8.74,20.76,21.15,24.11
		c6.85,1.85,8.54,5.94,5.25,12.17c-2.14,4.07-4,8.31-6.44,12.19c-8.23,13.06-8.2,27.01-4.1,41.1c3.54,12.17,11.54,20.14,24.5,22.4
		c5.76,1.01,11.55,1.96,17.23,3.36c10.76,2.64,12.24,6.14,6.79,15.99c-1.6,2.89-3.5,5.85-5.95,7.99
		c-15.04,13.11-25.52,29.85-36.71,45.98c-10.26,14.79-7.14,30.65,8.33,39.61c7.11,4.12,8.83,6.43,1.52,11.94
		c-28.66,21.6-51.54,48.82-73.79,76.65c-5.47,6.84-11.83,12.98-17.85,19.37c-3.44,3.66-7.43,6.87-10.44,10.84
		c-4.4,5.8-11.96,12.16-6.63,19.68c5.18,7.29,14.48,4.8,22.18,2.83c5.78-1.48,10.09-5.59,14.44-9.65
		c14.06-13.13,28.47-25.89,42.53-39.03c5.57-5.2,10.28-6.9,15.16,0.65c8.25,12.79,20.49,13.43,33.34,9.76
		c15.33-4.38,29.34-12.15,43.9-18.51c4.59-2,9.25-3.86,13.94-5.6c3.86-1.43,6.91-0.15,7.46,4.03c1.74,13.3,12.08,15.88,22.44,18.29
		c9.97,2.32,19.88-0.02,29.85-0.48c10.53-0.49,14.01,13.49,24.67,15.24c28.35,4.65,56.38,12.23,85.56,5.39
		c11.36-2.66,23.14-3.49,34.74-5.11c2.36-0.33,5.14-1.58,6.6,1.45c1.06,2.19-0.58,4.06-1.74,5.7c-2.4,3.4-4.46,7.41-7.67,9.8
		c-19.36,14.36-34.86,32.33-49.99,50.87c-22.15,27.14-45.74,53.11-65.2,82.38c-6.33,9.52-12.92,18.74-8.64,31.24
		c1.48,4.33-1.88,6.98-4.8,9.39c-4.84,4-9.81,7.83-14.68,11.79c-10.92,8.9-11.67,12.4-5.43,24.51c9.3,18.06,9.28,17.98-10.36,24.77
		c-12.2,4.22-25.3,5.76-36.49,13.02c-16.21,10.5-17.7,25.66-3.48,39.01c10.48,9.83,10.2,11.88-3.08,17.41
		c-4.61,1.92-9.48,3.93-14.36,4.33c-15.84,1.29-28,9.99-40.43,18.49c-4.2,2.87-4.25,6.85-4.35,11.04
		c-0.28,12.06,4.18,22.84,8.7,33.72c12.47,30.04,29.56,57.06,51.24,81.31c3.94,4.4,10.73,9.46,7.5,15.94
		c-3.72,7.45-11.9,4.26-18.26,3.15c-19.78-3.43-39.35-8.44-59.25-10.64c-17.79-1.97-36.3-2.26-48.9,14.7
		c-2.83,3.82-5.81,2.33-8.78,0.72c-5.15-2.79-10.17-5.81-15.26-8.71c-8.32-4.73-16.47-5.81-24.44,0.88
		c-3.38,2.84-7.43,3.46-11.8,3.09c-20.72-1.75-32.84,7.9-35.47,28.09c-2.16,16.59-2.36,16.86-15.9,6.63
		c-20.93-15.82-43.08-28.83-69.4-33.43c-11.3-1.98-22.38-4.14-31.83,5.24c-4.86,4.82-7.48-0.27-9.98-3.11
		c-12.73-14.42-25.14-29.14-37.9-43.54c-15.26-17.22-30.01-35.11-46.35-51.08c-26.91-26.32-57.05-49.16-91.4-65.47
		c-12.3-5.84-25.76-4.53-39.14-5.32c-22.85-1.34-32.23,9.87-41.69,28.36c-27.09,52.92-51.76,106.93-76.5,160.93
		c-5.76,12.58-12.07,24.82-19.29,36.61c-6.85,11.17-15.5,20.79-25.56,29.11c-15.26,12.62-23.55,9.5-27.61-10.06
		c-0.71-3.41,0.07-5.86,2.81-7.54c23.89-14.66,34.93-38.99,46.23-62.72c27.9-58.55,55.97-117,88.37-173.24
		c5.62-9.76,7.9-18.13-1.33-26.65c-1.49-1.38-2.63-3.31-3.5-5.18c-14.77-32.05-42.41-49.66-72.31-64.87
		c-8.39-4.27-17.05-6.68-26.49-6.59c-17.45,0.15-34.94-3.38-52.34,0.63c-4.26,0.98-7.35,0.11-8.45-4.75
		c-2.47-10.93-11.16-14.14-20.61-15.35c-17.41-2.22-34.91-3.81-52.37-5.63c-4.16-0.43-8.33-0.7-12.49-1.11
		c-7.34-0.73-9.96-3.76-4.96-10.4c0.25-0.33,0.46-0.7,0.67-1.06c11.22-19.44,10.34-22.87-8.8-34.3
		c-8.34-4.98-17.47-7.99-26.77-10.56c-6.85-1.9-13.74-3.68-20.58-5.64c-22.29-6.4-22.59-7.41-8.09-25.52
		c11.25-14.05,10.64-19.7-3.34-31.22c-0.65-0.53-1.37-0.99-1.93-1.6c-4.76-5.16-14.08-6.98-15.05-14.14
		c-0.89-6.64,6.94-10.83,10.65-16.29c6.33-9.29,1.33-27.85-9.6-35.46c-2.05-1.43-4.4-2.42-6.58-3.66
		c-12.17-6.92-12.16-6.93-8.74-20.54c1.71-6.83-0.16-12.96-2.62-19.43c-11.66-30.59-30.49-56.51-51.31-81.27
		c-2.49-2.96-7.86-6.05-4.87-10.32c2.64-3.77,7.93-1.16,11.78-0.06c14,4.03,28.2,2.96,42.4,2.25c2.46-0.12,5.29-0.37,7.26-1.64
		c12.53-8.13,24.9-7.6,39.31-3.91c16.83,4.31,34.73,4.82,52.23,6.05c11.94,0.84,15.44-2.17,19.37-13.52
		c5.08-14.67,2.66-28.85-3.23-42.75c-3.55-8.39-11.82-17.36-8.77-25.25c3.16-8.17,15.54-4.92,23.76-7.11
		c19.09-5.09,33.72-23.55,33.31-43.46c-0.17-8.08,0.71-15.87,2.93-23.53c1.06-3.66,2.73-8.1,7.68-5.36
		c7.88,4.35,11.7-1.46,15.82-5.78c4.08-4.27,6.01-9.98,8.04-15.5c9.75-26.59,22.37-51.21,44.73-69.89
		c10.44-8.72,14.41-21.29,16.1-34.48c1.71-13.29,3.81-26.5,7.17-39.48C353.4,373.63,354.82,368.04,360.15,363.03z M912.37,550.34
		c-0.53,0.62-0.95,1.39-1.6,1.82c-1.39,0.93-2.88,1.7-4.35,2.5c-30.82,16.68-63.52,25.58-98.78,23.6
		c-6.94-0.39-13.02-0.12-17.23,7.06c-17.77,30.31-35.92,60.41-53.88,90.61c-1.24,2.08-3.38,4.27-2.05,6.84
		c1.43,2.74,4.36,1.75,6.76,1.54c52.66-4.58,104.49-13.42,154.71-30.46c3.56-1.21,7.12-3.58,11.86-2.15
		c-3.49,4.2-7.91,4.56-11.73,5.93c-51.12,18.31-104.03,28.22-157.95,33.29c-4.52,0.43-9.67-0.42-12.47,4.25
		c-8.51,14.14-17.59,28-25.16,44.73c32.78,1.72,63.67,1.75,94.49,0.04c30.5-1.7,60.68-6.96,91.05-10.36
		c-27.03,7.61-54.65,11.41-82.42,14.52c-32.12,3.6-64.33,2.8-96.54,2.48c-6.05-0.06-11.52-0.13-15.07,6.23
		c-13.66,24.48-27.52,48.84-41.4,73.19c-3.22,5.65-0.9,7.58,4.66,7.74c2.93,0.08,5.86,0.13,8.78,0.2
		c39.36,0.9,77.3-7.19,114.83-17.97c8.26-2.37,16.54-4.64,24.82-6.96c-10.8,7.89-23.34,10.73-35.53,14.26
		c-38.71,11.23-77.96,19.26-118.59,16.97c-5.84-0.33-8.29,2.49-10.65,6.72c-7.33,13.15-14.72,26.28-22.15,39.38
		c-12.85,22.63-12.19,23.62,14.65,25.12c36.7,2.05,72.6-2.76,108.1-11.74c4.35-1.1,8.83-3.74,16.26-1.44
		c-43.38,13.48-85.38,24.42-127.96,17.97c-25.06-3.8-34.6,5.83-42.11,25.14c-0.3,0.77-0.71,1.53-1.19,2.21
		c-4.77,6.69-2.09,8.86,5.09,10.65c10.74,2.68,21.96,0.6,32.57,4.13c-8.6,1.97-17.58,3.97-25.83,1.67
		c-16.2-4.52-25.05,2.09-30.24,16.55c-0.28,0.77-0.87,1.43-1.27,2.16c-5.65,10.38-4.76,11.62,7.04,12.54
		c12.02,0.94,23.6-2.65,35.51-2.84c-13.9,6.55-28.61,8.93-43.69,7.84c-6.01-0.44-9.46,1.27-12.12,6.32
		c-4.3,8.14-8.94,16.09-13.29,24.2c-1.33,2.48-3.94,5.24-2.09,8.05c2.21,3.37,6.08,1.46,9.29,1.47c2.44,0.01,5.07-2.22,7.78-0.01
		c-2.67,3.47-6.09,4.56-9.25,4.8c-15.63,1.18-21.49,12.64-26.82,24.77c-0.96,2.18-3.12,4.55-1,6.85c2.01,2.19,4.7,0.71,7.06,0.05
		c20.56-5.71,41.07-11.55,61.67-17.1c5.49-1.48,8.38-4.27,9.41-10.07c1.16-6.54,2.74-13.26,8.53-17.77
		c-0.18,5.17-1.34,9.95-2.46,14.73c-1.57,6.65,1.17,8.43,7.35,6.65c7.23-2.08,14.42-4.54,21.8-5.84
		c10.26-1.81,14.83-6.38,14.49-17.66c-0.39-12.62,4.1-24.52,11.39-35.11c-2.22,12.34-6.28,24.19-5.88,36.89
		c0.23,7.36,2.85,9.78,10.16,7.4c8.34-2.72,16.94-4.65,25.38-7.07c13.47-3.86,13.55-3.92,13.51-17.88
		c-0.04-13.28,2.57-25.81,9.56-37.28c-0.76,10.8-3.87,21.16-3.73,32.03c0.21,17.21,0.43,17.6,16.41,13.11
		c3.22-0.91,6.42-1.96,9.69-2.61c7.67-1.51,11.21-5.48,11.04-13.84c-0.31-15.53,5.61-29.47,13.4-42.56
		c11.91-20.02,28.24-36.23,45.54-51.52c1.15-1.02,2.49-2.3,4.55-0.99c-1.09,4.83-5.5,6.98-8.61,10.02
		c-14.13,13.78-27.54,28.13-37.29,45.46c-6.65,11.8-11.01,24.34-11.48,38.08c-0.26,7.42,2.54,9.84,9.9,7.63
		c11.21-3.37,22.52-6.49,33.91-9.17c8.83-2.08,13.22-6.13,13.67-16.12c0.61-13.4,4.19-26.47,12.96-37.43
		c-3.67,12.41-7.2,24.7-7.39,37.73c-0.11,7.5,2.8,9.8,10,7.62c12.01-3.63,24.04-7.25,36.22-10.22c7.76-1.89,10.96-6.66,12.03-13.99
		c3.49-23.94,13.18-45.72,23.86-67.1c1.33-2.66,1.82-6.48,6.05-7.04c1.02,3.83-1.57,6.41-2.9,9.28
		c-9.32,20.17-17.89,40.6-21.6,62.68c-1.58,9.39-0.17,10.74,8.91,7.94c12.39-3.81,24.56-8.35,36.98-12.06
		c7.13-2.13,10.18-6.03,9.95-13.59c-0.31-9.92,1.1-19.69,6.79-28.51c-0.73,9.49-1.85,18.89-1.35,28.35
		c0.29,5.46,2.26,7.66,7.94,5.45c7.01-2.73,14.06-5.55,21.33-7.39c9.06-2.29,12.45-6.98,12.75-16.71
		c0.75-24.23,10.2-45.76,23.58-65.67c0.77,4.87-2.16,8.51-3.92,12.5c-7.29,16.51-14.19,33.14-14.12,51.64
		c0.04,9.52,1.29,10.58,10.12,7.75c8.76-2.81,17.21-6.59,26.02-9.2c7.4-2.19,11.05-5.74,11-14.1c-0.05-9.89,3.39-19.18,9.19-27.47
		c-0.73,9.12-4.6,17.55-5.26,26.64c-0.45,6.14,1.38,8.89,7.8,6.37c9.35-3.66,18.57-7.74,28.12-10.76
		c7.64-2.42,10.82-6.82,10.43-14.68c-0.31-6.12-0.2-12.37,5.66-19.77c-0.93,7.35-1.82,11.84-2,16.36c-0.42,11,1.07,12.13,11.13,8.37
		c12.15-4.54,24.16-9.44,36.28-14.06c19.38-7.39,38.8-14.69,58.74-22.22c-0.06,3.42-1.72,4.05-3.08,4.65
		c-27.11,11.94-54.49,23.31-81.9,34.49c-30.57,12.46-60.84,25.7-91.75,37.32c-8.1,3.04-6.9,6.57-1.64,11.44
		c2.55,2.36,6.41,3.95,6.72,8.45c-4.66,0.7-7.16-2.78-9.25-5.38c-6.83-8.47-14.33-7.83-23.43-4.04
		c-18.52,7.73-37.39,14.64-56.09,21.96c-9.83,3.85-10.02,4.91-1.72,11.96c21.47,18.23,44.73,33.8,70.1,46.06
		c13.81,6.68,27.85,12.9,42.27,19.55c-1.45,0.56-2.25,1.19-2.89,1.05c-2.04-0.43-4.06-1.03-6.01-1.78
		c-38.53-14.84-74.76-33.91-106.1-61.01c-8.9-7.69-16.39-8.94-27.03-4.67c-27.97,11.24-57.03,19.28-86.05,27.37
		c-9.83,2.74-19.52,6-31.3,9.65c31.33,21.34,62.03,39.01,93.78,54.98c31.63,15.91,64.24,29.5,98.93,41.89
		c-2.56,1-3.39,1.66-3.99,1.5c-3.23-0.88-6.41-1.91-9.58-2.98c-62.96-21.31-122.02-50.67-177.58-87.01
		c-7.44-4.87-13.73-5.74-22.05-2.97c-16.26,5.42-32.93,9.58-49.33,14.56c-3.19,0.97-7.65,0.51-9.29,5.63
		c16.02,12.3,33.82,21.93,52.24,34.16c-7.1,0.99-10.43-1.94-13.84-3.9c-14.15-8.12-28.25-16.34-42.07-25
		c-5.43-3.4-10.33-4.2-16.51-2.33c-26.43,7.99-52.98,15.55-79.48,23.28c-2.51,0.73-5.35,0.99-7.55,3.99
		c5.24,1.79,9.85,2.74,13.85,4.85c10.46,5.52,20.36,5.2,30.99-0.01c7.11-3.49,14.88-6.32,23.3-5.6
		c-9.21,5.46-19.81,8.02-29.64,15.62c21.58,8.82,40.48,19.5,59.49,29.93c7.57,4.15,13.31,4.42,20.27-1.4
		c7.63-6.38,16.83-10.36,26.88-11.58c-8.27,5.17-16.65,9.73-24.21,15.79c-5.45,4.36-4.44,7.12,1.08,10
		c14.46,7.56,28.93,15.1,43.27,22.89c4.73,2.57,8.56,1.62,12.84-0.99c11.1-6.77,22.88-12.2,35.04-16.78
		c19.44-7.32,33.42-8.77,49.33-4.83c-31.19-1.23-57.24,11.79-83.52,28.33c29.01,15.2,56.64,29.09,83.63,44.14
		c8.68,4.84,14.43,4.85,22.18-1.54c17.55-14.47,38.19-21.51,61.03-21.67c-4.48,1.82-9.17,3.08-13.93,3.96
		c-16.44,3.05-30.85,10.31-43.72,20.8c-8.01,6.53-8.11,7.07,0.32,12c12.28,7.17,24.78,13.96,37.22,20.85
		c4.05,2.25,8.15,4.29,13.09,2.5c1.36-0.49,5.3-2.03,3.24,1.93c-3.4,6.54,2.89,5.67,5.17,7.52c3.42,2.78,8.47,3.63,10.28,8.45
		c-10.32-4.07-19.87-9.18-29.33-14.45c-5.68-3.16-8.63-1.49-9.32,4.79c-1,9.07-0.58,18.11,0.67,27.2
		c-6.08-9.25-6.57-19.46-4.66-29.64c1.22-6.53-0.72-10.02-6.4-12.9c-12.68-6.43-25.08-13.42-37.69-19.99
		c-7.9-4.12-9.73-3.34-11.36,6.03c-2.48,14.2-1.76,28.34,2.81,42.14c0.53,1.59,1.15,3.17,1.45,4.8c0.29,1.59,2.25,3.61-1.13,5.06
		c-8.97-18.01-11.1-36.91-7.37-56.15c1.57-8.09-1.25-11.28-7.66-14.42c-28.55-13.99-56.94-28.33-85.45-42.41
		c-2.32-1.15-4.75-3.93-8.37-0.83c7.13,45.46,24.18,87.78,44.87,128.91c-3.82-0.79-4.58-3.31-5.76-5.46
		c-21.16-38.35-37.08-78.67-45.57-121.75c-1-5.07-1.88-9.56-7.21-12.25c-11.95-6.02-23.56-12.72-35.51-18.75
		c-8.55-4.32-10.46-3.41-11.77,5.45c-1.22,8.25-2.3,16.62-2.36,24.94c-0.2,28.58,4.02,56.65,10.77,84.39c1.2,4.92,3.67,9.82,2.53,16
		c-1.24-1.46-2.04-1.99-2.25-2.69c-12.11-41.6-21.15-83.61-14.36-127.26c1.13-7.28-0.9-10.73-7.1-13.65
		c-15.14-7.12-30.01-14.82-45.11-22.03c-6.46-3.09-13.22-5.56-22.08-9.23c17.98,40.45,36.33,77.55,38.23,119.64
		c-7.14-41.76-24.86-79.51-44.44-116.58c-1.84-3.49-4.58-5.89-8.34-7.16c-13.83-4.68-26.62-2.23-39.24,4.81
		c23.5,30.39,36.35,56.65,35.69,73.93c-2.19-5.78-3.89-10.45-5.72-15.06c-7.02-17.61-15.89-34.08-28.8-48.21
		c-6.21-6.8-12.61-10.07-22.1-6.11c-8.06,3.36-16.79,5.08-25.24,7.51c-4.49,1.29-10.09,2.6-9.48,8.18c0.52,4.79,6.22,2.66,9.59,3.52
		c12.15,3.13,22.65,8.45,29.04,19.67c-3.28-0.97-5.72-3.12-8.24-5.15c-9.33-7.52-20.2-10.14-31.82-8.68
		c-10.38,1.31-10.74,11.77-14.92,18.51c-2.53,4.09-8,9.28-5.44,13.16c3.48,5.24,10.88,2.28,16.31,1.41
		c15.27-2.44,30.18-2.02,44.28,4.56c36.82,17.15,69.76,40.71,97.22,69.98c26.84,28.61,54.36,56.88,78.4,88.07
		c3.51,4.55,6.45,5.54,11.35,2.04c7.27-5.19,15.38-5.07,24.03-3.44c26.77,5.04,51.34,14.56,72.77,31.89
		c9.39,7.59,10.06,6.94,12.03-4.15c2.96-16.7,22.13-30.89,38.91-28.32c4.95,0.76,9.01,0.21,12.9-2.85
		c9.22-7.24,18.77-6.39,27.91-0.19c9.69,6.59,18.74,10.81,28.08-0.59c1.62-1.97,5.17-2.61,7.97-3.33
		c13.86-3.59,27.74-5.8,42.15-2.64c16.33,3.58,32.81,6.53,49.25,9.58c4.23,0.78,8.68,2.39,12.93-0.07
		c-0.36-1.53-0.34-2.45-0.77-3.08c-1.64-2.42-3.2-4.95-5.18-7.08c-22.76-24.56-39.13-53.03-52.08-83.72
		c-4.96-11.76-8.16-23.68-7.55-36.51c0.2-4.3,0.56-9.01,4.39-11.25c12.83-7.51,23.92-18.49,39.79-20.17
		c4.96-0.52,9.84-1.97,14.69-3.23c6.91-1.8,8.86-4.1,3.25-10.88c-17.36-20.96-14.42-34.88,9.2-48.56c6.57-3.81,13.7-6.19,21.03-8.04
		c4.86-1.23,9.78-2.34,14.51-3.98c11.81-4.11,11.82-4.32,6.29-15.54c-7.7-15.62-6.48-21.39,6.92-32.51
		c2.25-1.87,4.54-3.71,6.94-5.39c6.46-4.53,11.21-9.3,9.11-18.6c-1.63-7.22,2.28-13.79,6.39-19.79
		c11.34-16.52,22.78-32.8,35.82-48.22c27.24-32.19,51.34-67.11,84.86-93.6c0.97-0.77,1.54-1.94,0.43-4.11
		c-7.85,1.08-16.18,1.6-24.21,3.45c-30.76,7.12-60.66,0.62-90.6-5.23c-3.2-0.63-7.25-1.72-9.02-4.04
		c-9.01-11.79-21.1-10.9-33.61-9.4c-2.45,0.29-5.06,0.05-7.5-0.45c-11.09-2.28-23.11-3.97-29.05-14.97
		c-3.92-7.26-7.44-7.03-13.78-4.02c-13.98,6.63-27.98,13.37-42.5,18.64c-14.83,5.38-29.82,5.89-41.52-7.56
		c-4.88-5.6-8.44-3.02-12.5,0.73c-12.92,11.91-26.78,22.79-38.83,35.64c-7.54,8.05-16.92,12.37-27.8,12.72
		c-7.63,0.25-15.46-0.81-19.71-8.43c-4.12-7.37-0.18-13.81,3.86-19.76c2.56-3.79,5.61-7.3,8.79-10.6
		c8.11-8.44,16.52-16.57,23.98-25.67c21.2-25.87,41.62-52.55,68.83-72.7c6.18-4.58,3.86-7.09-0.5-11.34
		c-13-12.68-16.04-27.04-7.54-39.44c11.56-16.86,22.15-34.58,37.52-48.56c3.93-3.58,9.92-7.28,8.14-13.03
		c-1.6-5.18-8.44-4.2-13.19-5.13c-29.64-5.8-43.57-26.63-38.23-56.7c1.36-7.69,4.76-14.19,8.88-20.54
		c4.2-6.47,5.85-11.92-3.87-15.45c-6.83-2.48-12.22-7.79-14.78-14.68c-6-16.14-10.77-32.61-8.46-50.19
		c0.44-3.32,1.57-6.76,0.23-9.92c-7.06-16.64-3.46-33.78-2.56-50.77c0.96-18.2,2.26-36.39,3.42-54.65c-4.71-0.21-6.3,2.71-7.79,4.92
		c-16.07,23.82-38.89,41.31-58.07,62.21c-14.78,16.1-32.87,27.26-53.12,34.66c-15.55,5.68-29.94,12.73-41.94,24.37
		c-6.43,6.23-14.72,9.2-23.14,5.95c-11.88-4.59-19.81-0.11-27.69,8.16c-9.98,10.48-22.39,14.29-36.67,10.55
		c-8.92-2.34-15.15-1.07-20.95,7.95c-16.07,25.02-36.03,29.92-62.79,16.67c-6.94-3.44-7.55,0.28-8.83,5.33
		c-5.58,21.93-13.22,43.19-21.31,64.29c-1.94,5.06-2.95,10.9-6.96,14.62c-9.94,9.23-11.23,21.4-11.2,33.43
		c0.06,26.39-9.8,48.87-25.11,69.49c-4.71,6.35-8.2,5.9-11.14-1.88c-3.7-9.78-7.83-19.96-7.18-30.38
		c2.03-32.45-5.04-64.04-7.65-96.03c-0.37-4.51-0.92-8.34-6.56-8.86c-7.13-0.66-10.77-5.79-13.92-11.4
		c-7.47-13.3-12.91-27.17-12.67-42.8c0.11-7.42-2.3-12.24-11.36-9.94c-7.45,1.89-14.05-1.19-19.98-5.4
		c-8.34-5.93-14.99-13.33-18.6-23.12c-1.76-4.78-3.69-9.32-9.11-11.23c-26.57-9.4-39.81-30.21-47.63-55.71
		c-1.31-4.27-1.56-8.98-4.98-13.39c-4.68,12.38-5.04,25-7.19,37.22c-3.08,17.51-9.64,32.85-24.75,43.47
		c-4.87,3.42-8.34,8.21-11.55,13.13c-10.08,15.43-19.75,31.03-25.34,48.85c-3.73,11.88-9.75,22.8-22.3,27.13
		c-9.91,3.42-12.92,9.81-11.54,19.21c3.05,20.82-17.59,46.26-38.48,51.07c-18.73,4.31-18.69,4.88-10.61,22.99
		c7.49,16.78,9.26,33.77,2.41,51.15c-3.72,9.44-10.2,15.08-20.99,14.62c-22.58-0.95-45.16-2.14-67.04-8.25
		c-6.18-1.72-11.47-1.75-16.72,1.59c-8.49,5.41-17.91,6.58-27.68,6.58c-10.64,0-21.28,0.49-33.4-2c2.02,3.04,2.78,4.5,3.82,5.7
		c20.23,23.22,36.09,49.11,47.74,77.63c2.56,6.26,6.33,12.68,3.26,19.17c-4.63,9.8-0.59,14.04,7.83,18.4
		c19.56,10.11,24.84,33.06,11.78,50.25c-4.37,5.76-5.05,9.05,1.3,14.16c26.19,21.06,26.29,22.28,8.04,49.47
		c-3.79,5.64-2.71,8.02,3.34,9.65c8.88,2.4,17.69,5.04,26.56,7.47c14.72,4.04,28.38,10.2,39.69,20.67
		c8.62,7.97,9.34,12.73,4.39,23.3c-5.27,11.24-4.9,12.21,7.62,13.16c17.1,1.3,34.19,2.66,51.13,5.45c8.89,1.46,17.8,4.06,22.26,12.4
		c4.86,9.09,11.43,8.06,19.11,5.79c3.81-1.12,6.98-4.32,11.79-2.17c8.98,4.01,18.71,4.02,28.35,3.81
		c9.39-0.21,18.43,1.34,26.63,5.97c10.56,5.96,20.8,12.48,31.33,18.49c16.41,9.35,29.29,21.97,38.26,38.74
		c3.73,6.97,8.66,13.31,13.1,19.9c1.79,2.65,3.54,4.59,6.82,1.21c15.49-15.93,14.77-30.07-2.16-44.95
		c-6.08-5.34-13.64-8.11-20.46-12.19c14.3,0.47,24.54,8.63,34.48,18.13c0.2-1.71,0.54-2.57,0.35-3.29
		c-2.76-10.08-5.51-20.17-8.43-30.21c-5.83-20.04-7.1-20.64-28.37-23.06c-21.27-2.42-42.56-2.75-63.9-2.52
		c-15.43,0.17-30.87-1.48-46.28,0.99c42.24-6.33,84.54-8.59,128.04-2.05c-1.56-6.31-5.12-9.82-8.23-13.55
		c-11.29-13.51-23.72-25.87-36.84-37.64c-5.48-4.92-10.64-6.79-17.98-5.75c-39.83,5.64-78.89,14.82-117.87,24.48
		c-4.28,1.06-8.74,3.84-16.19,1.13c45.88-13.88,89.92-24.33,136.68-32.92c-19.85-18.45-39.54-33.22-58.78-48.53
		c-3.64-2.9-6.52-2.11-10.06,0.37c-11.84,8.29-25.45,12.43-39.22,16.21c-36.5,10.04-74.03,12.95-111.48,16.44
		c-5.29,0.49-10.66,0.07-15.99,0.07c25.57-3.68,50.81-6.88,75.93-10.93c27.71-4.47,55.3-9.59,80.53-22.8
		c9.76-5.11,9.92-7.23,1.23-13.75c-19.08-14.31-38.44-28.25-57.46-42.64c-5.77-4.37-10.33-4.8-16.83-0.74
		c-23.5,14.69-50.1,20.6-76.96,25.43c-2.27,0.41-5.41,1.74-7.08-2.15c18.97-3.66,37.53-8.49,55.54-15.32
		c8.65-3.28,16.86-7.33,24.57-12.46c4.7-3.14,5.19-6.18,0.39-9.63c-6.45-4.64-13.22-8.94-19.2-14.13
		c-6.43-5.59-11.37-6.25-18.22-0.01c-7.98,7.26-18.02,11.33-28.83,12.67c7.96-5.66,17.11-8.89,24.69-14.89
		c8.16-6.46,8.22-7.55,0.26-13.65c-6.31-4.83-13.07-9.1-19.18-14.16c-5.91-4.89-10.93-5.66-17.83-1.14
		c-8.5,5.56-17.93,9.82-28.4,10.77c5.96-3.94,12.43-6.72,18.57-10.09c5.77-3.17,13.54-5.28,10.02-16.8
		c11.63,8.21,21.73,15.47,31.97,22.53c7.99,5.5,9.84,5.2,11.24-4.46c2.33-16.02,6.3-32.02,3.1-48.49
		c-1.23-6.33-1.12-12.85,0.41-19.2c5.06,24.83,6.39,49.67,0.52,74.48c-1.23,5.22,0.15,8.86,4.45,11.88
		c11.3,7.93,22.62,15.85,33.71,24.07c5.83,4.33,8.38,1.9,9.18-3.93c1.14-8.27,2.74-16.46,3.18-24.87
		c0.87-16.71-1.88-33.08-4.39-49.87c1.33,0.38,1.88,0.39,1.96,0.59c0.62,1.52,1.26,3.06,1.7,4.64c6.59,23.76,7.34,47.86,3.02,71.99
		c-1.38,7.73,0.36,12.62,6.87,16.92c10.47,6.91,20.64,14.3,30.63,21.89c6.3,4.78,8.77,2.37,9.95-4.15
		c1.57-8.64,2.78-17.3,3.49-26.09c1.05-13.2,2.25-26.36,1.13-39.67c3.26,8.07,4.19,16.28,4.33,24.68
		c0.25,15.13-1.35,30.07-3.8,44.94c-0.85,5.18-1.41,10.03,3.39,13.68c14.22,10.8,28.44,21.6,43.46,33
		c6.29-17.53,5.53-34.56,8.7-51.06c1.19,10.02,3.5,20.67,0.75,29.8c-7.18,23.81,5.58,36.44,22.79,47.97
		c8.8,5.89,15.29,14.94,25.61,20.62c2.71-10.26,0.89-19.63,2.87-28.5c4.66,8.8,4.6,17.94,3.83,27.11c-0.35,4.2-1.34,8.44,2.47,11.64
		c8.48,7.14,17,14.22,23.63,19.75c-6.82-25.85-14.5-54.86-22.12-83.89c-1.24-4.73-5.08-6.27-8.95-7.98
		c-6.97-3.06-14-6.06-19.47-11.71c8.35,0.73,15.08,6.8,24.59,6.16c-2.09-15.36-6.94-29.59-9.85-44.21
		c-1.57-7.88-5.58-12.13-13.1-14.97c-9.73-3.69-19.88-7.2-27.02-15.81c7.25,1.87,13.94,4.99,20.85,7.49
		c3.69,1.33,7.86,4.94,11.64,1.44c3.21-2.97,0.64-7.11-0.18-10.66c-2.55-11-5.76-21.89-7.65-33c-1.42-8.37-5.58-13.19-13.12-16.72
		c-22.41-10.49-43.36-23.57-63.7-37.6c-3.19-2.2-7.42-3.6-9.01-9.05c5.55,0.85,8.82,4.26,12.4,6.71
		c18.33,12.56,37.64,23.44,57.41,33.51c2.71,1.38,6.06,4.21,9.15,1.11c2.3-2.32,0.82-5.56,0.26-8.39
		c-7.05-35.73-11.82-71.8-15.8-107.96c-0.85-7.74-4.28-10.7-10.98-12.8c-16.92-5.33-32.15-14.07-46.22-24.81
		c-2.38-1.82-5.76-3.17-5.74-7.25c4.2-0.16,6.18,2.94,8.79,4.77c12.05,8.43,24.58,15.91,38.59,20.67
		c10.87,3.69,13.12,2.49,12.47-8.66c-1.34-23.37-3.33-46.7-4.91-70.06c-0.33-4.91-2.29-7.48-7.42-8.27
		c-5.88-0.9-12.15-1.43-17.31-6.36c4.28-1.85,7.31,0.27,10.41,0.88c13.17,2.6,13.58,2.04,12.78-11.03
		c-1.4-22.83-1.4-45.69-0.64-69.1c3.43,2.25,2.44,5.05,2.62,7.38c2.92,38.77,5.05,77.59,10.08,116.18
		c1.62,12.43,1.35,12.47,13.64,11.22c-4.41,5.09-12.16,6.83-11.01,15.69c1.83,13.98,2.96,28.04,6.34,42.65
		c20.11-8.81,36.09-22.78,55.04-35.43c-1.99,7.15-6.32,9.24-9.74,12c-11.09,8.94-22.7,17.27-35.16,24.12
		c-7.53,4.14-9.86,9.37-8.4,17.38c4.28,23.45,8.51,46.91,12.47,70.41c1.43,8.49,5.15,8.18,10.99,4
		c14.4-10.33,26.47-23.04,37.78-36.56c1.91-2.29,3.2-5.5,8.07-6.4c-2.21,6.19-5.58,9.88-8.61,13.76
		c-10.37,13.28-22.35,24.91-36.2,34.53c-5.34,3.71-8.38,8.1-6.63,14.79c4.02,15.38,8.12,30.73,12.06,46.13
		c1.46,5.7,4.39,6.45,9.12,3.5c8.19-5.12,15.77-10.97,22.79-17.63c9.89-9.38,18.77-19.72,28.26-31.07
		c1.54,5.63-1.42,7.92-3.25,10.34c-12.69,16.78-26.89,32.1-44.71,43.59c-5.65,3.64-8.06,7.66-6.05,14.58
		c4.31,14.86,8.17,29.86,11.96,44.86c1.71,6.77,4.49,7.86,10.48,3.96c14.7-9.56,26-22.21,35.41-36.79c1.84-2.85,2.71-6.7,8.73-9.27
		c-7.92,18-16.56,33.93-31.1,42.48c-20.2,11.87-18.19,26.01-11.64,43.71c4.86,13.14,5.47,13.7,17.62,5.46
		c7.52-5.1,12.66-12.79,20.51-17.55c-5.55,11.89-14.28,20.86-25.49,27.43c-4.3,2.52-7.3,4.7-5.49,10.74
		c4.32,14.42,7.72,29.11,11.91,43.57c2.4,8.3,4.33,8.39,10.56,1.96c5.38-5.56,7.2-13.24,11.67-19.38
		c-0.57,10.45-3.85,19.9-11.39,26.9c-5.46,5.07-6.49,10.18-4.2,16.75c1.24,3.55,1.86,7.32,3.21,10.82c1.15,3,0.3,7.29,3.95,8.74
		c3.34,1.32,3.94-5.07,9.13-3.63c-6.54,10.32-9.6,20.64-1.15,32.65c5.55-9.7,10.08-18.61,15.55-26.89
		c4.92-7.46,7.45-14.13,2.26-22.82c-2.95-4.94-3.32-11.34-2.32-17.44c2.39,4.07,3.89,8.34,5.59,12.54c0.91,2.26,1.34,5.36,4.2,5.78
		c2.91,0.43,4.16-2.35,5.4-4.47c2.33-3.97,4.08-8.36,6.87-11.96c5.25-6.76,4.42-11.65-1.19-18.43c-9-10.88-14.08-24.07-16.07-38.16
		c5.02,9.71,9.2,19.75,15.5,28.67c10.87,15.4,13.17,11.06,18.04-0.23c1.31-3.05,3.24-5.86,5.14-8.61c3.97-5.74,4.01-9.98-2.47-14.57
		c-9.11-6.46-13.97-16.05-16.29-26.83c6.16,6.45,10.06,14.45,16.81,20.22c7.92,6.77,9.88,6.59,15.26-1.99
		c3.56-5.67,6.62-11.66,10.39-17.18c3.76-5.49,2.88-9.89-1.43-14.52c-7.43-7.97-14.08-16.58-19.8-25.88
		c-15.97-25.94-23.51-54-21.21-84.48c1.39,9.69,2.51,19.45,4.33,29.13c5.43,28.82,18.81,53.39,38.95,74.53
		c4.74,4.98,8.09,6.44,12.12-0.96c7.01-12.85,14.64-25.36,22.26-37.86c2.99-4.9,3.32-8.79-0.77-13.47
		c-28.34-32.36-40.89-71.54-47.44-112.99c-1.75-11.07-5.29-22.41-1.54-33.9c2.24,21.23,6.24,42.09,12.02,62.56
		c7.78,27.59,18.31,53.93,38,75.53c7.16,7.86,8.07,7.74,13.51-1.22c9.77-16.09,19.09-32.46,28.87-48.54c3.65-6,3.56-11.3,0.5-17.63
		c-10.23-21.15-17.56-43.34-23.37-66.14c-10.97-43.1-16.73-87.03-20.36-131.18c-1.25-15.22-5.14-30.69-1.39-49.16
		c3.37,37.03,6.2,71.11,11.71,104.88c7.29,44.67,16.2,88.91,35.05,130.48c1.79,3.94,2.57,8.74,7.97,11.31
		c18.29-30.13,36.27-59.78,54.3-89.39c3.1-5.09,1.52-9.45-1.34-13.99c-30.35-48.19-37.59-102.09-38.74-157.47
		c-0.13-6.35,1.47-12.32,4.3-18.12c-2.54,13.44,0.53,26.65,0.68,39.91c0.31,27.02,5.7,53.17,13.7,78.81
		c5.5,17.63,13.22,34.33,22.98,50.06c4.23,6.82,7.48,6.41,11.59-0.29c13.79-22.46,27.83-44.77,41.93-67.04
		c2.93-4.63,4.27-8.58,0.53-13.64c-12.22-16.54-17.79-35.83-21.86-55.61c-1.73-8.41-4.75-16.76-2.58-25.67
		c2.1,5.41,3.28,10.98,4.53,16.55c4.31,19.23,9.23,38.28,19.69,55.29c6.32,10.27,7.92,10.25,14.32,0.39
		c10.25-15.79,20.01-31.91,30.62-47.46c4.56-6.68,5.51-11.5,0.42-18.8c-7.84-11.25-12.33-24.23-12.19-38.35
		c5.54,14.41,9.01,29.79,22.01,41.38c7.36-11.44,13.97-22.06,20.97-32.42c3-4.44,2.87-8.3,0.29-12.75c-5.22-9-4.61-18.59-2.32-28.26
		c0.92,4.05,1.04,8.16,1.35,12.26c0.44,5.9,1,13.38,6.9,14.86c5.08,1.28,6.71-6.33,9.48-10.22c6.25-8.78,12.03-17.89,18-26.86
		c0.76,0.53,1.53,1.07,2.29,1.6c-8.76,14.69-17.77,29.23-26.16,44.12c-3.33,5.9-12.18,11.98-7.9,18.21
		c4.64,6.74,14.72,2.86,22.46,2.63c4.56-0.14,9.09-1.32,13.62-2.09c1.65-0.28,3.25-0.83,4.9-1.05c1.67-0.22,3.77-1.7,5.01,1.53
		c-14.13,5.27-28.61,6.2-43.28,5.89c-4.59-0.1-9.5-0.81-12.45,3.92c-12.06,19.38-24.03,38.82-36.79,59.45
		C840.6,576.52,877.26,567.93,912.37,550.34z M911.56,968.97c-135.48,40.42-272.18,76.38-409.04,113.94
		c53.17-101.82,109.67-200.87,164.69-300.76c-61.89,102.15-122.46,205.05-181.46,308.88c-1.16-0.08-2.33-0.17-3.49-0.25
		c-28.41-106.68-56.82-213.37-85.45-320.86c-1.18,5.19,0.62,9.09,1.54,13.1c20.89,91.78,44.24,182.93,69.11,273.7
		c3.2,11.7,5.11,24.04,10.28,34.8c3.13,6.52,2.32,10.11-0.72,15.45c-38.53,67.62-75.06,136.28-108.05,206.83
		c-13.4,28.65-25.27,58.71-52.12,78.64c-5.29,3.93-2.58,7.98,0.1,11.95c3,4.43,6.39,2.93,9.62,0.46
		c9.04-6.9,16.91-14.92,23.37-24.33c12.63-18.39,21.95-38.58,30.75-58.88c31.97-73.79,69.23-144.92,107.19-215.71
		c5.24-9.77,10.02-19.06,23.47-18.36c3.56,0.18,7.24-1.84,10.86-2.88c102.91-29.56,205.81-59.14,308.72-88.68
		C858.2,988.14,885.1,979.22,911.56,968.97z"/>
</g>
</svg>
