<svg id="Layer_1" data-name="Layer 1" xmlns="http://www.w3.org/2000/svg" viewBox="0 0 223.31 44.37"><defs><style>.cls-1{font-size:36.1px;font-family:Rondal-Regular, Rondal;}</style></defs><text class="cls-1" transform="translate(39.3 33.33)">CHINAR HOME</text><path d="M36.29,9.53c.1.21.17.37.25.52.83,1.69,1.64,3.4,2.52,5.06.6,1.15.67,1.14,1.77.48.71-.42,1.4-.88,2.17-1.37-.09.45-.18.82-.24,1.2q-.69,4-1.37,8.06a7,7,0,0,0,0,1.12l.12.07a4.68,4.68,0,0,0,.62-.45c1.3-1.34,2.58-2.68,3.87-4l.55-.61c.16.57.28,1.08.42,1.58.39,1.33.57,1.47,1.91,1.14,1.18-.28,2.34-.66,3.52-1l.44-.14c-.22.59-.44,1.11-.61,1.65-.37,1.22-.71,2.44-1.06,3.67a.68.68,0,0,0,.45.9c.65.27,1.29.57,2,.88l-.31.26c-2.59,2-5.21,4.05-7.76,6.14-1.34,1.11-1.14.78-.56,2.32.19.51.43,1,.67,1.57-.52-.08-1-.16-1.44-.22-2.14-.28-4.27-.58-6.42-.84-1.14-.13-1.19-.09-1.19,1.05,0,1.5.07,3,.15,4.51.06,1.26.19,2.52.29,3.8H35.55c0-.19,0-.38,0-.56.15-2.39.29-4.77.42-7.16A9.31,9.31,0,0,0,36,38c0-.34-.16-.53-.54-.48-1.41.15-2.83.27-4.25.45s-2.65.4-4,.6h-.24c.3-.69.58-1.35.85-2,.34-.86.36-.9-.35-1.49-2.19-1.78-4.4-3.54-6.6-5.3-.61-.49-1.23-.94-1.91-1.46l.69-.3L21,27.37a.62.62,0,0,0,.4-.82c-.35-1.25-.7-2.5-1.08-3.75-.16-.52-.37-1-.59-1.62.61.19,1.15.4,1.71.54,1,.26,2,.51,3,.7.56.11.74,0,.93-.55s.4-1.32.59-2A1.87,1.87,0,0,0,26,19.6a61.68,61.68,0,0,0,5,5.08l.15-.05a4.93,4.93,0,0,0,0-.94c-.26-1.81-.52-3.62-.82-5.43-.21-1.24-.5-2.47-.75-3.71a2.63,2.63,0,0,1,0-.33c.54.36,1,.69,1.53,1,.34.21.67.41,1,.59.64.35.72.36,1.1-.28.53-.9,1-1.83,1.49-2.76s.89-1.89,1.33-2.83Z" transform="translate(-18.93 -9.53)"/></svg>